<svg width="113" height="32" viewBox="0 0 113 32" fill="none" xmlns="http://www.w3.org/2000/svg">
<path d="M36.76 18.808H32.368V25H30.016V7.648H36.76C40.168 7.648 42.352 9.88 42.352 13.216C42.352 16.456 40.144 18.808 36.76 18.808ZM36.352 9.76H32.368V16.696H36.256C38.584 16.696 39.88 15.328 39.88 13.192C39.88 11.008 38.56 9.76 36.352 9.76ZM43.3249 19.12C43.3249 15.496 45.9169 12.952 49.4449 12.952C52.9489 12.952 55.5409 15.496 55.5409 19.12C55.5409 22.744 52.9489 25.288 49.4449 25.288C45.9169 25.288 43.3249 22.744 43.3249 19.12ZM45.6049 19.12C45.6049 21.568 47.1649 23.272 49.4449 23.272C51.7009 23.272 53.2849 21.568 53.2849 19.12C53.2849 16.672 51.7009 14.968 49.4449 14.968C47.1649 14.968 45.6049 16.672 45.6049 19.12ZM56.5118 30.256V28.408H58.0238C59.1038 28.408 59.9678 28.24 60.5198 26.752L60.9278 25.624L56.1998 13.264H58.5758L61.9838 22.72L65.4638 13.264H67.7918L62.2478 27.64C61.4558 29.656 60.2798 30.496 58.4798 30.496C57.7358 30.496 57.1118 30.4 56.5118 30.256ZM78.0169 25H68.8729V23.176L75.2089 15.16H68.8729V13.264H78.0169V15.112L71.6329 23.104H78.0169V25ZM85.3679 25.288C81.9119 25.288 79.5359 22.792 79.5359 19.144C79.5359 15.472 81.8639 12.928 85.2719 12.928C88.6079 12.928 90.7919 15.232 90.7919 18.712V19.552L81.7199 19.576C81.8879 22.048 83.1839 23.416 85.4159 23.416C87.1679 23.416 88.3199 22.696 88.7039 21.352H90.8159C90.2399 23.872 88.2719 25.288 85.3679 25.288ZM85.2719 14.824C83.3039 14.824 82.0559 16 81.7679 18.064H88.5359C88.5359 16.12 87.2639 14.824 85.2719 14.824ZM98.3757 25.288C94.9197 25.288 92.5437 22.792 92.5437 19.144C92.5437 15.472 94.8717 12.928 98.2797 12.928C101.616 12.928 103.8 15.232 103.8 18.712V19.552L94.7277 19.576C94.8957 22.048 96.1917 23.416 98.4237 23.416C100.176 23.416 101.328 22.696 101.712 21.352H103.824C103.248 23.872 101.28 25.288 98.3757 25.288ZM98.2797 14.824C96.3117 14.824 95.0637 16 94.7757 18.064H101.544C101.544 16.12 100.272 14.824 98.2797 14.824ZM109.514 25H107.258V15.16H104.954V13.264H107.258V9.592H109.514V13.264H111.818V15.16H109.514V25Z" fill="#292929"/>
<path d="M3.2381 4H0V28H3.2381L3.23809 17.377C5.04533 17.377 6.83488 17.031 8.50455 16.3588C10.1742 15.6865 11.6913 14.7012 12.9692 13.459C14.2471 12.2168 15.2608 10.7422 15.9524 9.11918C16.644 7.4962 17 5.7567 17 4H13.5595C13.5595 5.31752 13.2926 6.62215 12.7739 7.83938C12.2551 9.05662 11.4949 10.1626 10.5364 11.0943C9.57801 12.0259 8.44019 12.7649 7.18793 13.2691C5.93568 13.7733 4.59352 14.0328 3.23809 14.0328L3.2381 4Z" fill="#292929"/>
</svg>
