<svg width="112" height="32" viewBox="0 0 112 32" fill="none" xmlns="http://www.w3.org/2000/svg">
<path d="M35.76 18.808H31.368V25H29.016V7.648H35.76C39.168 7.648 41.352 9.88 41.352 13.216C41.352 16.456 39.144 18.808 35.76 18.808ZM35.352 9.76H31.368V16.696H35.256C37.584 16.696 38.88 15.328 38.88 13.192C38.88 11.008 37.56 9.76 35.352 9.76ZM42.3249 19.12C42.3249 15.496 44.9169 12.952 48.4449 12.952C51.9489 12.952 54.5409 15.496 54.5409 19.12C54.5409 22.744 51.9489 25.288 48.4449 25.288C44.9169 25.288 42.3249 22.744 42.3249 19.12ZM44.6049 19.12C44.6049 21.568 46.1649 23.272 48.4449 23.272C50.7009 23.272 52.2849 21.568 52.2849 19.12C52.2849 16.672 50.7009 14.968 48.4449 14.968C46.1649 14.968 44.6049 16.672 44.6049 19.12ZM55.5118 30.256V28.408H57.0238C58.1038 28.408 58.9678 28.24 59.5198 26.752L59.9278 25.624L55.1998 13.264H57.5758L60.9838 22.72L64.4638 13.264H66.7918L61.2478 27.64C60.4558 29.656 59.2798 30.496 57.4798 30.496C56.7358 30.496 56.1118 30.4 55.5118 30.256ZM77.0169 25H67.8729V23.176L74.2089 15.16H67.8729V13.264H77.0169V15.112L70.6329 23.104H77.0169V25ZM84.3679 25.288C80.9119 25.288 78.5359 22.792 78.5359 19.144C78.5359 15.472 80.8639 12.928 84.2719 12.928C87.6079 12.928 89.7919 15.232 89.7919 18.712V19.552L80.7199 19.576C80.8879 22.048 82.1839 23.416 84.4159 23.416C86.1679 23.416 87.3199 22.696 87.7039 21.352H89.8159C89.2399 23.872 87.2719 25.288 84.3679 25.288ZM84.2719 14.824C82.3039 14.824 81.0559 16 80.7679 18.064H87.5359C87.5359 16.12 86.2639 14.824 84.2719 14.824ZM97.3757 25.288C93.9197 25.288 91.5437 22.792 91.5437 19.144C91.5437 15.472 93.8717 12.928 97.2797 12.928C100.616 12.928 102.8 15.232 102.8 18.712V19.552L93.7277 19.576C93.8957 22.048 95.1917 23.416 97.4237 23.416C99.1757 23.416 100.328 22.696 100.712 21.352H102.824C102.248 23.872 100.28 25.288 97.3757 25.288ZM97.2797 14.824C95.3117 14.824 94.0637 16 93.7757 18.064H100.544C100.544 16.12 99.2717 14.824 97.2797 14.824ZM108.514 25H106.258V15.16H103.954V13.264H106.258V9.592H108.514V13.264H110.818V15.16H108.514V25Z" fill="#FAFAFA"/>
<path d="M3.2381 4H0V28H3.2381L3.23809 17.377C5.04533 17.377 6.83488 17.031 8.50455 16.3588C10.1742 15.6865 11.6913 14.7012 12.9692 13.459C14.2471 12.2168 15.2608 10.7422 15.9524 9.11918C16.644 7.4962 17 5.7567 17 4H13.5595C13.5595 5.31752 13.2926 6.62215 12.7739 7.83938C12.2551 9.05662 11.4949 10.1626 10.5364 11.0943C9.57801 12.0259 8.44019 12.7649 7.18793 13.2691C5.93568 13.7733 4.59352 14.0328 3.23809 14.0328L3.2381 4Z" fill="#D9D9D9"/>
</svg>
