<svg width="17" height="24" viewBox="0 0 17 24" fill="none" xmlns="http://www.w3.org/2000/svg">
<path d="M3.2381 0H0V24H3.2381L3.23809 13.377C5.04533 13.377 6.83488 13.031 8.50455 12.3588C10.1742 11.6865 11.6913 10.7012 12.9692 9.459C14.2471 8.21683 15.2608 6.74215 15.9524 5.11918C16.644 3.4962 17 1.7567 17 0H13.5595C13.5595 1.31752 13.2926 2.62215 12.7739 3.83938C12.2551 5.05662 11.4949 6.16262 10.5364 7.09425C9.57801 8.02588 8.44019 8.76489 7.18793 9.26909C5.93568 9.77328 4.59352 10.0328 3.23809 10.0328L3.2381 0Z" fill="#FAFAFA"/>
</svg>
