<svg width="46" height="46" viewBox="0 0 46 46" fill="none" xmlns="http://www.w3.org/2000/svg">
<rect x="1.5" y="1.5" width="43" height="43" rx="21.5" fill="#F2FFD1"/>
<rect x="1.5" y="1.5" width="43" height="43" rx="21.5" stroke="#060A23" stroke-width="3"/>
<g clip-path="url(#clip0_2034_938)">
<path fill-rule="evenodd" clip-rule="evenodd" d="M23.0387 22.1853C22.6242 17.0435 18.32 13 13.0714 13C13.0714 18.2242 17.0775 22.5128 22.1853 22.9613C17.0435 23.3758 13 27.68 13 32.9286C18.2242 32.9286 22.5128 28.9225 22.9613 23.8147C23.3758 28.9565 27.68 33 32.9286 33C32.9286 27.7758 28.9225 23.4872 23.8147 23.0387C28.9565 22.6242 33 18.32 33 13.0714C27.7758 13.0714 23.4872 17.0775 23.0387 22.1853ZM22.9998 23.0002C22.9999 23.0002 23.0001 23.0003 23.0002 23.0003L23.0003 22.9997C23.0001 22.9997 22.9999 22.9997 22.9998 22.9997C22.9998 22.9999 22.9998 23.0001 22.9998 23.0002Z" fill="#526E0C"/>
</g>
<defs>
<clipPath id="clip0_2034_938">
<rect width="20" height="20" fill="white" transform="translate(13 13)"/>
</clipPath>
</defs>
</svg>
