<svg width="46" height="46" viewBox="0 0 46 46" fill="none" xmlns="http://www.w3.org/2000/svg">
<rect x="1.5" y="1.5" width="43" height="43" rx="21.5" fill="#F7F9FC"/>
<rect x="1.5" y="1.5" width="43" height="43" rx="21.5" stroke="#060A23" stroke-width="3"/>
<path d="M24.3871 17.3636H26.1371V25.6136C26.1371 26.3598 25.9893 26.9981 25.6939 27.5284C25.4022 28.0587 24.9912 28.464 24.4609 28.7443C23.9306 29.0208 23.3094 29.1591 22.5973 29.1591C21.942 29.1591 21.353 29.0398 20.8303 28.8011C20.3113 28.5625 19.9003 28.2159 19.5973 27.7614C19.2981 27.303 19.1484 26.7462 19.1484 26.0909H20.8928C20.8928 26.4129 20.9666 26.6913 21.1143 26.9261C21.2659 27.161 21.4723 27.3447 21.7337 27.4773C21.9988 27.6061 22.3018 27.6705 22.6428 27.6705C23.014 27.6705 23.3284 27.5928 23.5859 27.4375C23.8473 27.2784 24.0462 27.0455 24.1825 26.7386C24.3189 26.4318 24.3871 26.0568 24.3871 25.6136V17.3636Z" fill="#060A23"/>
</svg>
